<svg width="891" height="261" viewBox="0 0 891 261" fill="none" xmlns="http://www.w3.org/2000/svg">
<path d="M65.0554 50.2709C68.0109 29.3552 80.5149 20.4887 91.4274 12.759C96.429 9.34879 100.976 6.16596 103.477 2.07375C104.841 0.0276449 107.796 -0.654405 109.842 0.709666C110.297 1.16436 110.752 1.61906 111.206 2.07375C113.935 5.93862 118.254 8.89411 123.028 12.3043C133.941 20.034 146.445 28.9005 149.4 49.8162C168.952 41.8591 182.82 48.2248 194.869 53.9085C200.326 56.4092 205.327 58.6827 210.102 59.1374C212.602 59.3647 214.648 61.6382 214.421 64.139C214.421 64.821 214.194 65.503 213.739 66.1851C211.92 70.2773 211.238 75.7336 210.784 81.6446C209.647 95.0579 208.055 110.29 191.459 123.249C208.055 136.207 209.42 151.44 210.784 164.853C211.238 170.764 211.92 176.448 213.966 180.767C215.103 183.041 214.194 185.769 211.92 186.905C211.238 187.133 210.784 187.36 210.102 187.36C205.555 187.815 200.553 190.088 195.097 192.589C182.82 198.273 168.952 204.638 149.4 196.681C146.445 217.597 133.941 226.463 123.028 234.193C118.254 237.603 113.707 240.786 111.206 244.424C110.979 244.878 110.524 245.333 109.842 245.788C107.796 247.152 104.841 246.697 103.477 244.424C100.749 240.559 96.2017 237.376 91.4274 233.738C80.5149 226.009 68.0109 217.142 65.0554 196.227C45.2764 204.184 31.4083 197.818 19.359 192.134C13.9027 189.634 8.90114 187.36 4.35424 186.905C3.6722 186.905 3.21751 186.678 2.53547 186.451C0.262019 185.314 -0.647348 182.586 0.489378 180.312C2.53548 175.993 2.99016 170.536 3.6722 164.398C4.80892 150.985 6.17299 135.98 22.9965 122.794C6.40034 109.608 4.80892 94.3759 3.6722 81.1899C3.21751 75.2789 2.53546 70.0499 0.716702 65.7304C0.489357 65.0484 0.262005 64.5937 0.0346596 63.6843C-0.192686 61.1835 1.85344 58.91 4.35424 58.6827C9.12849 58.4553 14.1301 55.9546 19.5864 53.4538C31.6356 48.6795 45.2764 42.3138 65.0554 50.2709Z" fill="black"/>
<path d="M89.3816 92.5571L90.291 90.9657C92.1097 87.5555 92.5644 83.918 91.655 80.2805C90.7456 76.8703 88.4722 73.6875 85.062 71.8687L84.8347 71.6414L73.4674 65.0483V78.689C73.4674 82.5539 75.0588 85.9641 77.5596 88.4649C80.0604 90.9657 83.4706 92.5571 87.3355 92.5571H89.3816ZM39.8203 123.476C43.6852 125.749 47.5501 128.023 51.6423 130.296C55.0525 132.115 58.69 132.57 62.3275 131.66C65.7377 130.751 68.9205 128.478 70.7393 125.067L70.9666 124.84L71.876 123.476L70.9666 122.112C70.9666 121.885 70.7393 121.657 70.7393 121.657C68.9205 118.474 65.7377 116.428 62.3275 115.519C58.9173 114.61 55.2798 114.837 52.097 116.656C51.8696 116.883 51.6423 116.883 51.4149 117.11L39.8203 123.476ZM73.6948 181.676L85.5167 174.856C88.9269 173.037 90.973 169.854 92.1097 166.444C93.0191 163.034 92.5644 159.169 90.7456 155.759L89.8362 154.168H88.0175C84.1526 154.168 80.7425 155.759 78.2417 158.26C75.7409 160.761 74.1494 164.171 74.1494 168.036V181.676H73.6948ZM140.989 181.676V168.036C140.989 164.171 139.398 160.761 136.897 158.26C134.396 155.759 130.986 154.168 127.121 154.168H125.302L124.393 155.759C122.574 159.169 122.119 162.807 123.029 166.444C123.938 169.854 126.211 173.037 129.622 174.856L140.989 181.676ZM174.636 123.476L163.269 116.883L163.041 116.656C159.631 114.837 155.994 114.382 152.356 115.292C148.946 116.201 145.763 118.474 143.944 121.885L143.035 123.476L143.944 124.84L144.172 125.067C145.991 128.478 149.173 130.524 152.584 131.66C155.994 132.57 159.859 132.115 163.269 130.296L174.636 123.476ZM140.989 65.0483L129.622 71.6414L129.394 71.8687C125.984 73.6875 123.938 76.8703 122.801 80.2805C121.892 83.6906 122.347 87.5555 124.165 90.9657L125.075 92.5571H126.894C130.758 92.5571 134.169 90.9657 136.669 88.4649C139.17 85.9641 140.762 82.5539 140.762 78.689V65.0483H140.989Z" fill="#009CA5"/>
<path d="M82.333 123.249C86.6526 130.524 90.7448 137.799 94.837 144.847H119.845L125.983 133.934L126.211 133.707L132.349 123.021L126.211 112.109L120.072 101.196H95.0643L82.333 123.249Z" fill="#E41D37"/>
<path d="M76.877 132.343C73.6941 136.435 69.3746 139.163 64.6003 140.3C58.9167 141.891 52.5511 141.209 47.0948 138.026C46.6401 137.799 46.1854 137.571 45.7307 137.344L31.8626 129.387C31.6353 129.387 31.408 129.16 31.1806 128.932L30.9533 128.705L30.7259 128.478C14.8117 139.845 13.675 153.258 12.5383 165.308C12.0836 170.082 11.6289 174.629 10.4922 178.721C14.5844 179.858 18.6766 181.676 22.9962 183.723C33.9087 188.724 46.4127 194.635 64.1457 186.451V186.223V167.808C64.1457 161.443 66.6465 155.532 70.966 151.439C74.3762 148.029 78.9231 145.529 84.152 144.846L76.877 132.343ZM99.8388 154.395C101.658 159.169 101.885 164.398 100.748 168.945C99.1568 174.629 95.5193 179.858 89.8356 183.04L88.9263 183.495L88.6989 183.723L74.1488 192.134L73.9215 192.362C75.7402 211.686 86.8801 219.643 96.656 226.463C100.521 229.192 104.158 231.692 107.341 234.875C110.297 231.92 113.934 229.192 117.799 226.691C127.575 219.643 138.942 211.913 140.761 192.362L140.534 192.134L125.984 183.723L125.756 183.495L124.847 183.04C119.391 179.858 115.526 174.629 113.934 168.945C112.57 164.171 112.797 159.169 114.844 154.395H99.8388ZM130.303 145.301C135.305 145.983 139.852 148.484 143.489 151.894C147.581 155.986 150.309 161.897 150.309 168.263V185.996V186.678V186.905C168.042 195.09 180.546 189.179 191.459 184.177C195.779 182.131 199.643 180.312 203.963 179.176C202.826 174.856 202.372 170.536 201.917 165.762C200.78 153.713 199.643 140.072 183.729 128.932L183.502 129.16L183.275 129.387C183.047 129.614 182.82 129.614 182.592 129.842L168.724 137.799C168.27 138.026 167.815 138.253 167.36 138.481C161.904 141.664 155.538 142.346 149.855 140.754C145.081 139.39 140.761 136.662 137.578 132.57L133.941 138.708L133.713 138.936L130.303 145.301ZM183.502 117.792C199.643 106.652 200.78 92.7844 201.917 80.9625C202.372 76.4156 202.826 71.8687 203.736 67.7765C199.416 66.6397 195.324 64.821 191.004 62.7749C180.092 57.7733 167.588 52.0897 150.082 60.0467V60.2741V60.9561V78.689C150.082 85.0547 147.581 90.9657 143.262 95.0579C139.852 98.4681 135.305 100.969 130.076 101.651L133.713 108.017L137.351 114.382C140.534 110.29 144.853 107.562 149.627 106.198C155.311 104.606 161.677 105.288 167.133 108.471L167.36 108.699L183.502 117.792ZM73.9215 54.5905L89.6083 63.6843C89.8357 63.6843 90.063 63.9116 90.2904 64.139C95.7466 67.3218 99.3841 72.3234 100.748 78.007C102.112 82.7812 101.885 87.7829 99.8388 92.5571H114.616C112.798 87.7829 112.57 82.5539 113.707 78.007C115.298 72.3234 118.936 67.0944 124.619 63.9116L124.847 63.6843L140.534 54.5905H140.761C138.942 35.2661 127.575 27.309 117.799 20.2613C113.934 17.5332 110.297 15.0324 107.341 12.0769C104.158 15.2597 100.521 17.7606 96.656 20.4887C86.8801 27.3091 75.7402 35.2661 73.9215 54.5905ZM64.373 60.2741V60.0467C46.6401 52.0897 34.3634 57.7733 23.4509 62.7749C19.1313 64.821 15.0391 66.6397 10.7195 67.7765C11.8563 71.8687 12.3109 76.4156 12.5383 80.9625C13.675 93.0118 14.8117 106.653 30.7259 118.02L30.9533 117.792L46.8674 108.699C52.3237 105.516 58.6894 104.834 64.373 106.425C69.1472 107.789 73.4668 110.517 76.6496 114.61L84.152 101.878C79.1504 101.196 74.6035 98.6954 70.966 95.2852C66.8738 91.193 64.1457 85.2821 64.1457 78.9164V60.2741H64.373Z" fill="#DDA143"/>
<path fill-rule="evenodd" clip-rule="evenodd" d="M371.062 136.889C367.879 144.392 362.195 149.848 354.693 153.258C345.826 157.35 334.459 158.26 324.91 158.714C313.543 158.942 300.357 158.487 289.445 154.622C281.942 151.894 274.212 147.802 269.438 141.209C265.119 135.298 263.3 128.25 263.982 120.975C264.664 113.245 267.165 105.743 270.575 98.9227C274.667 90.9656 279.896 83.6906 286.034 77.3249C292.627 70.2772 299.675 63.9115 307.632 58.4552L310.36 56.6365L312.634 58.9099C315.589 61.8654 318.545 64.5935 321.5 67.3217C325.365 70.9592 329.23 74.5967 333.095 78.2343C337.414 82.3265 341.734 86.646 345.826 90.9656C350.146 95.5125 354.011 100.059 357.648 105.061C361.058 109.835 364.241 114.609 366.742 119.838C369.243 124.613 370.834 129.842 371.062 135.298V136.207V136.889ZM502.694 120.293C505.65 119.384 509.287 118.702 513.834 118.02C518.154 117.338 522.473 117.11 526.338 116.883C530.203 116.656 534.068 117.338 537.933 118.929C541.57 120.52 544.981 122.794 548.163 125.522C550.892 127.796 552.71 130.524 553.62 133.706C554.529 136.662 554.756 140.072 554.302 143.255C553.847 146.665 552.71 149.848 551.119 153.486C549.527 156.896 547.254 160.306 544.753 163.489C542.252 166.672 539.297 169.627 535.887 172.355C532.477 175.083 529.066 177.357 525.429 179.403C523.837 180.312 521.564 180.994 518.836 181.449C516.108 181.904 513.152 182.358 509.742 182.813C506.559 183.04 503.149 183.268 499.739 183.495C496.329 183.722 493.146 183.722 490.19 183.722C487.235 183.722 484.734 183.722 482.461 183.722C480.187 183.722 478.596 183.722 477.686 183.722L480.869 172.81V103.242C480.869 95.7398 481.779 89.3742 483.597 83.9179C485.416 78.6889 487.69 74.142 490.418 70.7319C493.146 67.3217 496.329 64.5936 499.739 63.0021C503.149 61.1834 506.559 60.274 509.742 59.8193C512.925 59.3646 515.88 59.592 518.608 60.274C521.337 60.956 523.383 62.0927 524.747 63.4568C522.246 63.4568 519.518 63.9115 517.017 64.8209C514.289 65.5029 512.016 67.0943 509.742 69.1404C507.469 71.4139 505.877 74.3694 504.513 78.4616C503.149 82.5538 502.467 88.0101 502.694 94.6031V120.293ZM502.467 167.354C504.74 168.036 507.469 168.718 509.969 168.945C512.698 169.172 515.198 169.172 517.699 168.718C520.2 168.263 522.701 167.581 524.747 166.444C527.02 165.307 528.839 163.716 530.43 161.67C532.704 158.714 533.841 155.532 533.613 151.894C533.386 148.484 532.022 144.619 529.748 140.754C526.566 135.298 522.701 131.888 517.926 130.524C513.152 128.932 507.923 129.614 502.012 132.57L502.467 167.354ZM579.31 134.161C577.718 136.662 577.036 139.39 576.809 142.573C576.582 145.528 577.036 148.711 578.628 152.121C583.174 152.803 587.949 152.803 592.723 152.121C597.497 151.439 601.362 150.303 604.318 148.711C607.273 147.12 609.092 144.846 609.547 142.346C610.001 139.617 608.41 136.662 604.772 133.252C599.998 128.932 595.224 126.659 590.904 126.659C586.13 126.431 582.265 128.932 579.31 134.161ZM686.162 128.932C683.206 129.614 679.796 130.296 676.159 131.206C672.521 132.115 668.884 133.252 665.701 135.071C662.518 136.662 659.79 138.708 657.516 141.436C655.243 143.937 654.334 147.347 654.334 151.212C654.334 154.168 655.47 156.668 657.516 159.169C659.562 161.67 662.973 163.489 667.747 164.853C668.202 164.853 669.111 164.853 670.475 164.853C671.839 164.853 673.431 164.625 675.249 164.171C677.068 163.943 678.887 163.489 680.706 163.034C682.524 162.579 684.343 161.897 685.935 161.443V128.932H686.162ZM728.221 115.064L712.761 99.6047L728.221 83.9179L743.68 99.6047L728.221 115.064ZM753.683 167.808V141.664C753.683 140.527 753.683 139.163 753.683 138.026C753.683 136.662 753.456 135.525 753.229 134.388C753.001 133.252 752.319 132.342 751.41 131.66C750.501 130.978 749.364 130.751 747.545 130.751C746.408 130.751 745.272 131.433 743.68 132.342C742.089 133.252 740.725 134.389 739.133 135.753C738.224 136.662 737.087 137.571 736.405 138.481C736.405 138.935 736.405 139.39 736.405 139.845C736.405 142.8 736.405 145.074 736.405 146.438C736.405 148.711 736.405 151.212 736.632 153.94C736.86 156.668 737.314 159.396 737.769 161.897C738.224 164.398 739.133 166.672 740.27 168.263C741.407 170.082 742.771 170.991 744.59 171.218C746.408 171.446 748.682 170.764 751.41 168.945C752.547 168.718 753.001 168.263 753.683 167.808ZM822.796 155.759C823.024 157.35 823.478 159.169 823.933 161.215C824.388 163.034 824.842 165.08 825.524 166.899C826.206 168.718 826.888 170.536 827.798 171.9C828.707 173.492 830.071 174.629 831.663 175.311C830.071 177.357 828.253 179.176 826.206 180.767C824.16 182.358 822.114 183.268 819.841 183.495C815.749 183.95 812.338 183.268 809.838 181.676C807.337 179.858 805.518 177.584 803.927 174.629C802.563 171.673 801.426 168.263 800.744 164.625C800.062 160.761 799.607 157.123 799.152 153.486C798.698 149.848 798.243 146.438 797.561 143.255C796.879 140.072 795.97 137.799 794.606 135.98C793.014 133.934 791.423 133.024 789.831 133.706C788.24 134.161 786.648 135.525 785.284 137.571C783.92 139.617 782.556 142.346 781.192 145.756C780.055 149.166 778.919 152.576 778.237 155.986C777.782 158.487 776.645 161.215 775.054 164.398C773.462 167.581 771.644 170.536 769.37 173.264C767.097 175.993 764.596 178.266 761.868 180.085C759.14 181.904 756.412 182.813 753.683 182.813V170.764C752.547 172.355 751.183 173.719 749.819 175.083C748.227 176.675 746.636 178.039 745.272 178.948C743.68 180.085 741.634 180.994 739.361 181.904C737.087 182.813 734.814 183.268 732.313 183.495C728.448 184.177 725.493 183.495 723.446 181.449C721.173 179.63 719.582 176.902 718.445 173.492C717.308 170.082 716.399 166.444 716.171 162.579C715.717 158.714 715.717 154.85 715.717 151.439C715.717 150.303 715.717 148.484 715.944 146.21C716.171 143.937 716.171 141.436 715.944 139.163C715.944 136.889 715.489 134.616 715.035 133.024C714.58 131.206 713.443 130.296 712.079 130.296C711.397 130.296 710.26 130.524 709.124 131.206C708.896 131.433 708.442 131.433 708.214 131.66C708.214 135.298 708.214 139.39 708.442 143.482C708.669 150.303 708.669 157.123 708.896 164.171C708.896 171.218 709.124 178.039 708.896 184.859C708.896 191.679 708.669 197.818 707.987 203.501C707.532 207.594 706.85 211.459 705.714 214.641C704.804 217.824 703.44 220.78 701.849 223.508C700.257 226.236 698.439 228.737 696.392 230.783C694.346 233.056 692.073 235.102 689.572 237.148C684.116 241.695 679.114 245.56 674.113 248.97C669.111 252.381 664.109 255.109 658.88 257.155C653.652 258.974 648.195 260.11 642.512 260.338C636.828 260.565 630.69 259.656 624.097 257.61C621.141 256.7 617.958 255.336 615.003 253.745C612.047 252.153 609.547 250.562 607.273 248.516C605 246.697 603.181 244.424 601.817 242.15C600.453 239.877 599.771 237.376 599.771 234.875C599.771 229.419 601.135 224.19 604.09 219.188C607.046 214.187 610.683 209.412 615.003 205.093C619.322 200.773 624.097 196.908 629.098 193.726C634.1 190.543 638.874 187.815 643.421 185.768L647.059 189.861C644.785 190.77 642.512 192.134 639.556 193.498C636.828 194.862 634.1 196.454 631.372 198.272C628.644 200.091 626.143 201.91 623.869 204.183C621.596 206.23 619.777 208.503 618.413 211.004C617.049 213.505 616.367 216.005 616.594 218.734C616.594 221.462 617.731 224.19 619.55 227.145C621.368 229.646 623.642 232.147 626.597 234.42C629.553 236.694 632.963 238.513 636.601 239.877C640.465 241.468 644.33 242.377 648.65 243.059C652.969 243.742 657.289 243.742 661.836 243.287C668.884 241.695 674.113 238.74 677.75 234.193C681.16 229.873 683.661 224.645 685.025 218.734C686.389 212.823 686.844 206.457 686.844 199.409C686.617 192.589 686.617 185.769 686.389 179.403V172.582L683.661 178.039C679.569 179.175 675.704 180.312 672.066 181.222C668.429 182.131 665.019 182.586 661.381 182.586C657.971 182.586 654.561 181.904 651.151 180.54C647.741 179.176 644.103 176.902 640.465 173.492C637.737 170.991 635.919 168.263 634.782 165.307C634.782 165.08 634.555 164.853 634.555 164.625C631.599 167.354 628.644 169.854 625.233 172.128C621.823 174.401 618.64 176.447 615.23 178.039C611.82 179.63 608.637 180.767 605.682 181.449C602.726 182.131 599.998 182.358 597.952 182.131C592.95 182.586 587.949 182.586 582.947 181.676C577.946 180.994 573.626 179.63 569.534 177.584C565.442 175.765 562.259 173.037 559.531 169.854C556.802 166.671 555.211 162.579 554.302 158.032C553.62 153.031 553.847 148.257 554.984 143.71C556.12 139.163 557.939 135.298 560.667 131.66C563.395 128.023 566.578 124.84 570.443 122.339C574.308 119.611 578.628 117.565 583.629 116.201C586.812 115.292 590.45 114.609 594.769 114.155C599.089 113.7 602.954 113.7 606.818 114.155C611.365 114.609 614.775 115.746 617.504 117.338C620.232 118.929 622.505 120.975 624.324 123.476C625.915 125.749 627.507 128.023 628.644 130.296C629.78 132.797 630.69 135.071 630.917 137.571C631.144 139.845 630.917 142.118 629.78 144.164C628.871 146.21 627.052 148.029 624.551 149.393C621.596 150.985 618.413 152.576 614.775 154.168C611.138 155.759 607.5 157.123 603.636 158.26C599.771 159.396 596.361 160.306 592.723 160.761C589.313 161.215 586.13 161.443 583.629 160.761C585.675 163.489 588.403 165.307 591.814 166.444C595.224 167.581 599.316 168.036 603.408 168.036C607.728 168.036 612.047 167.354 616.594 166.217C621.141 165.08 625.461 163.261 629.326 161.215C630.69 160.533 632.054 159.851 633.19 158.942C633.19 157.805 633.19 156.896 633.418 155.759C633.872 152.576 635.009 149.393 636.828 146.21C638.647 143.028 640.92 140.072 643.876 137.344C647.741 133.479 652.515 130.296 657.971 127.796C663.655 125.067 669.566 123.021 675.704 121.202C681.842 119.384 688.208 118.247 694.574 117.338C700.939 116.656 706.623 116.201 711.624 116.201C709.578 118.247 708.442 119.838 708.214 120.975C707.987 122.112 707.76 123.476 707.76 124.385V125.977C708.214 125.522 708.896 125.067 709.351 124.613C712.079 122.567 714.807 120.975 717.763 119.838C720.718 118.702 724.128 117.792 727.766 117.338C731.404 116.883 735.268 116.428 739.588 116.428C738.679 117.338 737.997 119.156 737.542 121.885C737.087 124.613 736.86 127.341 736.632 130.524C736.405 132.57 736.405 134.616 736.405 136.435C737.087 135.298 737.769 134.161 738.679 133.024C740.043 131.206 741.407 129.16 742.998 127.341C744.59 125.522 746.181 124.158 747.772 123.021C749.591 121.657 751.41 120.293 753.229 119.384C755.047 118.247 757.094 117.338 759.14 116.656C761.186 115.974 763.459 115.292 765.96 115.064C768.461 114.609 771.189 114.609 774.144 114.609L774.372 140.527C775.736 137.571 777.1 134.616 778.919 131.433C780.737 128.25 782.784 125.295 785.057 122.794C787.33 120.066 790.286 118.02 793.241 116.428C796.424 114.837 799.834 114.155 803.927 114.382C806.427 114.837 808.701 116.201 810.747 118.02C812.793 120.066 814.157 122.112 814.839 124.158C815.067 124.84 815.521 126.431 816.203 128.478C816.658 130.524 817.34 133.024 818.022 135.98C819.159 133.252 820.75 130.524 822.796 128.023C824.842 125.295 827.343 123.021 830.071 120.748C832.799 118.702 835.755 116.883 839.165 115.746C842.348 114.609 845.758 113.927 849.396 114.382C851.896 114.837 854.17 116.201 856.216 118.02C858.262 120.066 859.626 122.112 860.308 124.158C860.763 125.295 861.218 127.568 861.9 130.978C862.582 134.388 863.264 138.253 864.173 142.346C865.083 146.438 866.219 150.53 867.356 154.622C868.493 158.714 870.084 161.897 871.675 164.171C873.04 165.989 874.404 167.126 876.222 167.354C878.041 167.581 879.633 167.126 881.679 165.99C883.497 164.853 885.316 163.261 886.908 160.988C888.499 158.714 889.863 156.214 891 153.486C890.318 156.441 888.954 159.624 887.135 162.807C885.316 165.989 883.043 169.172 880.769 171.9C878.268 174.629 875.768 177.129 872.812 178.948C870.084 180.767 867.356 181.904 864.855 182.131C861.218 182.813 858.262 182.358 855.989 180.767C853.715 179.176 851.669 176.902 850.078 173.947C848.486 170.991 847.35 167.581 846.44 163.943C845.531 160.079 844.621 156.441 843.939 152.576C843.257 148.711 842.348 145.301 841.439 142.118C840.529 138.935 839.62 136.435 838.256 134.843C836.892 133.252 835.3 132.342 833.482 132.57C831.663 132.57 830.071 133.479 828.48 134.843C826.888 136.207 825.297 138.026 823.933 140.527C822.569 143.028 821.66 145.528 820.978 148.484L822.796 155.759ZM387.203 82.5538C388.34 78.6889 389.249 75.5061 389.704 73.2327C390.386 70.9592 390.386 68.6858 389.931 66.867C389.476 65.0482 388.567 63.0021 386.976 60.956C385.384 58.9099 382.883 56.1818 379.246 52.7716L397.661 34.3566C401.298 37.0848 403.799 39.8129 405.391 42.7684C406.982 45.7239 407.891 48.6794 408.119 51.8622C408.346 55.045 407.664 58.2279 406.527 61.1834C405.391 64.3662 403.799 67.0943 401.753 69.8225C399.707 72.5506 397.434 74.8241 394.933 77.0975C392.659 79.5983 389.931 81.1897 387.203 82.5538ZM394.933 117.792C395.16 115.291 395.615 113.018 396.297 110.972C396.979 108.926 397.661 107.107 398.798 105.516C399.707 103.924 400.844 102.56 401.98 101.196C403.117 99.8321 404.481 98.9227 406.073 98.0133C407.437 97.1039 409.028 96.4219 410.62 95.7398C412.211 95.0578 414.03 94.6031 415.848 94.3758C417.667 94.1484 419.486 93.9211 421.305 93.6937C423.124 93.4664 424.942 93.4664 426.988 93.6937C428.807 93.6937 430.853 93.9211 432.899 94.1484C434.945 94.3758 436.992 94.6031 438.81 94.8305C440.629 95.0578 442.675 95.5125 444.721 95.7398C446.54 95.9672 448.586 96.4219 450.632 96.6492C452.451 96.8766 454.27 97.3312 456.316 97.5586C458.135 97.7859 459.726 98.2406 461.545 98.468C463.364 98.6953 464.955 98.9227 466.546 99.15C468.138 99.3773 469.502 99.3774 470.866 99.3774H472.685L472.23 101.196C471.775 103.242 471.093 105.516 470.184 107.562C469.275 109.608 468.138 111.654 466.774 113.473C465.41 115.519 464.046 117.338 462.682 119.156C461.09 120.975 459.499 122.794 457.907 124.613C456.089 126.431 454.497 128.023 452.678 129.842C450.86 131.433 449.041 133.252 446.995 134.843C444.949 136.435 443.13 138.026 441.311 139.617C439.72 140.982 437.901 142.573 435.855 144.164C434.036 145.528 432.445 146.892 430.853 148.257C429.262 149.621 427.898 150.985 426.306 152.121C424.942 153.486 423.578 154.622 422.669 155.759C422.441 155.986 421.987 156.441 421.759 156.668H422.896C424.26 156.896 425.852 157.123 427.67 157.35C429.489 157.578 431.308 158.032 432.899 158.26C434.491 158.487 436.31 158.942 438.356 159.396C440.402 159.851 442.221 160.306 444.039 160.533C445.631 160.988 447.677 161.215 449.723 161.897C451.542 162.352 453.36 162.807 455.179 163.034C456.998 163.261 458.589 163.716 460.181 163.943C461.772 164.171 463.136 164.398 464.728 164.398C466.092 164.398 467.456 164.398 468.593 164.398C469.729 164.398 470.639 164.171 471.321 163.943C472.003 163.716 472.457 163.489 472.912 163.034C473.139 162.807 473.594 162.352 473.821 162.125C474.049 161.897 474.276 161.443 474.504 161.215L474.958 160.306C475.186 160.079 475.186 159.851 475.413 159.624V159.396C475.64 158.714 476.095 158.26 477.004 158.26H477.232H477.459C478.368 158.487 478.596 159.169 478.368 160.079V160.306L478.141 160.533L477.914 161.215C477.004 164.625 476.095 167.581 474.958 170.082C473.821 172.582 472.685 174.856 471.321 176.447C469.957 178.039 468.365 179.63 466.774 180.54C465.182 181.676 463.364 182.358 461.545 183.04C459.726 183.495 457.907 183.722 455.861 183.95C453.815 183.95 451.769 183.95 449.496 183.495L442.903 182.586L435.855 181.449C434.945 181.222 433.809 181.222 432.672 180.994C431.535 180.767 430.171 180.54 429.035 180.312C427.67 180.085 426.306 179.63 424.942 179.403C423.578 179.176 422.214 178.721 420.623 178.493C419.259 178.266 417.667 178.039 416.076 177.811C414.484 177.584 413.12 177.357 411.529 177.129C409.938 176.902 408.573 176.902 407.209 176.902C405.845 176.902 404.481 176.902 403.117 177.129C400.616 177.357 398.343 178.039 396.297 178.948C395.387 179.403 394.478 180.085 393.796 180.54C393.114 181.222 392.659 181.904 392.205 183.04L387.885 191.907L389.476 182.131C389.704 180.085 390.386 177.811 391.068 175.765C391.75 173.719 392.659 171.673 393.796 169.627C394.933 167.581 396.069 165.762 397.434 163.716C398.798 161.897 400.162 159.851 401.526 158.032C403.117 156.214 404.481 154.395 406.073 152.803C407.664 151.212 409.256 149.621 411.074 148.029C412.893 146.438 414.484 145.074 416.076 143.71C417.667 142.346 419.486 141.209 421.077 140.072C421.759 139.617 422.442 139.163 423.351 138.481L426.306 136.435C427.443 135.525 428.58 134.843 429.717 133.934C431.081 133.024 432.217 132.115 433.354 131.206C434.491 130.296 435.628 129.387 436.992 128.478C438.356 127.568 439.492 126.431 440.629 125.749C441.766 124.84 442.903 123.931 443.812 123.021C444.949 122.112 445.858 121.43 446.54 120.748C447.222 120.066 447.904 119.384 448.359 118.929L448.586 118.702C447.449 118.702 446.54 118.702 445.403 118.702C443.812 118.702 442.221 118.474 440.629 118.247C439.038 118.02 437.446 117.792 435.628 117.565C434.036 117.338 432.217 117.11 430.626 116.656L420.395 114.837C418.804 114.609 417.213 114.382 415.621 114.155C414.03 113.927 412.438 113.927 411.074 113.927C409.71 113.927 408.346 113.927 406.982 114.155C405.618 114.382 404.481 114.609 403.117 114.837C401.98 115.064 401.071 115.519 400.162 116.201C399.252 116.883 398.57 117.565 397.661 118.474L394.478 122.567L394.933 117.792ZM312.861 19.1245C308.769 23.2167 305.131 27.7636 302.631 32.9926C300.812 36.8574 299.22 41.859 301.039 45.9512L302.176 48.452L300.13 50.2708C296.492 53.681 292.855 57.0911 289.445 60.5013C283.988 65.7303 278.987 71.4139 274.44 77.3249C268.756 84.1452 263.755 91.6476 259.435 99.3774C254.888 107.334 251.478 115.974 249.205 125.067C247.84 130.524 247.386 136.207 247.84 141.891C248.295 147.347 249.659 152.349 251.933 157.123C254.433 162.352 258.298 166.672 262.618 170.309C268.074 174.856 274.44 178.039 281.033 180.312C292.4 184.177 304.222 186.451 316.271 185.768C326.502 185.314 336.505 183.04 345.826 178.493C354.693 174.174 362.422 168.263 369.015 160.761C375.836 153.031 380.837 144.392 384.475 134.843C387.43 127.113 389.704 118.02 389.022 109.608C388.34 102.788 386.294 96.1945 382.656 90.2836C378.791 84.1452 374.017 78.4616 368.333 73.6873C361.968 68.2311 355.375 62.5474 348.782 57.0911C341.734 51.1802 334.914 44.8145 328.321 38.4489C322.182 32.7652 317.181 26.1722 312.861 19.1245Z" fill="white"/>
</svg>
